<?xml version="1.0" encoding="UTF-8" standalone="no"?>
<svg width="24px" height="24px" viewBox="0 0 24 24" version="1.1" xmlns="http://www.w3.org/2000/svg" xmlns:xlink="http://www.w3.org/1999/xlink" xmlns:sketch="http://www.bohemiancoding.com/sketch/ns">
    <!-- Generator: Sketch 3.5.1 (25234) - http://www.bohemiancoding.com/sketch -->
    <title>Page 1</title>
    <desc>Created with Sketch.</desc>
    <defs>
        <path id="path-1" d="M0,0.142588235 L23.6845217,0.142588235 L23.6845217,24 L0,24"></path>
        <path id="path-3" d="M0,0.142588235 L23.6845217,0.142588235 L23.6845217,24 L0,24 L0,0.142588235 Z"></path>
        <path id="path-5" d="M0,0.142588235 L23.6845217,0.142588235 L23.6845217,24 L0,24"></path>
    </defs>
    <g id="Master-Header" stroke="none" stroke-width="1" fill="none" fill-rule="evenodd" sketch:type="MSPage">
        <g id="Console-Copy-2" sketch:type="MSArtboardGroup" transform="translate(-99.000000, -19.000000)">
            <g id="Page-1" sketch:type="MSLayerGroup" transform="translate(99.000000, 19.000000)">
                <path d="M7.13989565,12.0728824 C7.13989565,12.9555882 7.30998261,13.8114706 7.64598261,14.6172353 C7.97050435,15.3954706 8.43485217,16.0946471 9.02685217,16.695 C9.1565913,16.8266471 9.2912,16.9522941 9.43033043,17.0715882 L9.43241739,7.07276471 C9.2925913,7.19241176 9.15728696,7.31841176 9.02685217,7.45076471 C8.43485217,8.05111765 7.97050435,8.75029412 7.64598261,9.52852941 C7.30998261,10.3342941 7.13989565,11.1901765 7.13989565,12.0728824" id="Fill-1" fill="#94A3AB" sketch:type="MSShapeGroup"></path>
                <path d="M18.1369043,7.45076471 C17.5452522,6.85041176 16.8562087,6.37888235 16.0892522,6.04958824 C15.2951652,5.709 14.451687,5.53605882 13.5817739,5.53605882 C12.8231652,5.53605882 12.0843826,5.66770588 11.3814261,5.92747059 L19.9271652,10.9360588 C19.843687,10.4535882 19.7069913,9.98311765 19.5177739,9.52852941 C19.1932522,8.75029412 18.7285565,8.05111765 18.1369043,7.45076471" id="Fill-3" fill="#00B29F" sketch:type="MSShapeGroup"></path>
                <path d="M10.5893565,6.2826 C10.5879652,6.28330588 10.5862261,6.28436471 10.5848348,6.28507059 L13.7250087,11.8040118 L20.0182261,11.8040118 C20.0154435,11.7341294 20.0116174,11.6642471 20.0067478,11.5947176 L10.7785739,6.18589412 C10.7149217,6.21730588 10.6519652,6.24942353 10.5893565,6.2826" id="Fill-5" fill="#00B29F" sketch:type="MSShapeGroup"></path>
                <path d="M20.0184348,12.3384706 L20.0184348,12.3384706 L13.7206957,12.3384706 L13.7206957,12.3374118 L10.5878261,17.8627059 L10.5885217,17.8627059 C10.650087,17.8955294 10.7123478,17.9272941 10.7749565,17.9583529 L20.0069565,12.5484706 C20.0118261,12.4785882 20.0156522,12.4087059 20.0184348,12.3384706" id="Fill-7" fill="#5AAAFA" sketch:type="MSShapeGroup"></path>
                <path d="M16.089113,18.0960353 C16.8560696,17.7667412 17.545113,17.2955647 18.1367652,16.6948588 C18.7287652,16.0945059 19.193113,15.3953294 19.5176348,14.6170941 C19.7075478,14.1618 19.8442435,13.6902706 19.9273739,13.2067412 L11.3781565,18.2170941 C12.0821565,18.4775647 12.8219826,18.6095647 13.5816348,18.6095647 C14.4515478,18.6095647 15.2953739,18.4366235 16.089113,18.0960353" id="Fill-9" fill="#5AAAFA" sketch:type="MSShapeGroup"></path>
                <path d="M13.2660522,12.0712235 L13.2664,12.0705176 L13.2657043,12.0708706 L10.1349217,6.54910588 C10.1345739,6.54945882 10.1338783,6.54981176 10.1335304,6.55016471 C10.1112696,6.56428235 9.95474783,6.66910588 9.95474783,6.66945882 L9.95231304,17.4747529 C10.0093565,17.5142824 10.0670957,17.5531059 10.1255304,17.5908706 L10.1255304,17.5908706 L13.2660522,12.0712235 Z" id="Fill-11" fill="#94A3AB" sketch:type="MSShapeGroup"></path>
                <path id="Fill-13" fill="#90908F" sketch:type="MSShapeGroup" d="M13.7206261,12.3365647 L13.7206261,12.3372706 L13.7209739,12.3369176 L13.7206261,12.3365647 Z"></path>
                <g id="Group-17">
                    <mask id="mask-2" sketch:name="Clip 16" fill="white">
                        <use xlink:href="#path-1"></use>
                    </mask>
                    <g id="Clip-16"></g>
                    <path d="M13.5818087,5.03198824 C17.1421565,5.03198824 20.0760696,7.75281176 20.4746783,11.2568118 C20.4858087,11.3549294 20.4948522,11.4530471 20.5018087,11.5522235 C20.5018087,11.5529294 20.5018087,11.5539882 20.5021565,11.5546941 L23.6778087,5.97328235 L20.3602435,0.142341176 L13.725113,0.142341176 L10.5379826,5.74387059 C10.6350261,5.69587059 10.7334609,5.64963529 10.833287,5.60622353 C11.6760696,5.23669412 12.6054609,5.03198824 13.5818087,5.03198824" id="Fill-15" fill="#00B29F" sketch:type="MSShapeGroup" mask="url(#mask-2)"></path>
                </g>
                <path id="Fill-18" fill="#90908F" sketch:type="MSShapeGroup" d="M10.675513,18.6289765 L10.675513,18.6289765 L10.5499478,18.4076824 L10.5496,18.4076824 L10.675513,18.6289765 Z"></path>
                <g id="Group-22">
                    <mask id="mask-4" sketch:name="Clip 21" fill="white">
                        <use xlink:href="#path-3"></use>
                    </mask>
                    <g id="Clip-21"></g>
                    <path d="M20.5030261,12.5766706 L20.5030261,12.5773765 C20.4957217,12.6811412 20.4863304,12.7838471 20.4748522,12.8862 C20.0776348,16.3916118 17.1430261,19.1138471 13.5819826,19.1138471 C12.6042435,19.1138471 11.6738087,18.9084353 10.8303304,18.5382 C10.7357217,18.4969059 10.6421565,18.4531412 10.5499826,18.4076118 L13.7318957,23.9999647 L20.3670261,23.9999647 L23.6845913,18.1693765 L20.5030261,12.5766706 Z" id="Fill-20" fill="#5AAAFA" sketch:type="MSShapeGroup" mask="url(#mask-4)"></path>
                </g>
                <g id="Group-25">
                    <mask id="mask-6" sketch:name="Clip 24" fill="white">
                        <use xlink:href="#path-5"></use>
                    </mask>
                    <g id="Clip-24"></g>
                    <path d="M9.70466087,6.23283529 L3.31753043,6.23283529 L-3.47826087e-05,12.0634235 L3.31753043,17.8943647 L9.67787826,17.8943647 C9.67683478,17.8936588 9.67613913,17.8933059 9.67544348,17.8926 C9.59231304,17.8350706 9.51057391,17.7761294 9.43022609,17.7150706 C7.73805217,16.4310706 6.64309565,14.3815412 6.64309565,12.0729529 C6.64309565,9.76295294 7.73909565,7.71271765 9.43266087,6.42871765 C9.52170435,6.36130588 9.61248696,6.29601176 9.70466087,6.23283529" id="Fill-23" fill="#94A3AB" sketch:type="MSShapeGroup" mask="url(#mask-6)"></path>
                </g>
            </g>
        </g>
    </g>
</svg>